<?xml version="1.0" standalone="no"?>
<!DOCTYPE svg PUBLIC "-//W3C//DTD SVG 20010904//EN"
 "http://www.w3.org/TR/2001/REC-SVG-20010904/DTD/svg10.dtd">
<svg version="1.0" xmlns="http://www.w3.org/2000/svg"
 width="500.000000pt" height="500.000000pt" viewBox="0 0 500.000000 500.000000"
 preserveAspectRatio="xMidYMid meet">
<metadata>
Created by potrace 1.14, written by Peter Selinger 2001-2017
</metadata>
<g transform="translate(0.000000,500.000000) scale(0.100000,-0.100000)"
fill="#000000" stroke="none">
<path d="M0 2500 l0 -2500 2500 0 2500 0 0 2500 0 2500 -2500 0 -2500 0 0
-2500z m2109 862 c110 -43 173 -107 206 -211 23 -69 16 -177 -15 -249 -28 -66
-117 -150 -199 -189 -33 -15 -60 -30 -60 -33 -1 -3 29 -21 67 -40 84 -44 208
-161 287 -272 32 -46 62 -87 66 -91 9 -12 67 88 106 183 53 127 76 262 71 423
l-4 137 82 0 c100 0 96 5 96 -154 0 -223 -75 -463 -214 -683 l-40 -63 33 -42
c108 -142 209 -194 303 -158 l26 10 0 715 0 716 122 -3 122 -3 248 -565 c136
-311 260 -598 276 -637 15 -40 30 -73 33 -73 3 0 20 37 37 83 17 45 144 332
281 637 l250 555 115 3 116 3 0 -791 0 -790 -91 0 -90 0 3 674 c3 626 2 670
-13 617 -8 -31 -139 -334 -289 -673 l-274 -618 -46 0 -46 0 -269 603 c-148
331 -278 632 -290 669 l-21 68 4 -670 5 -670 -61 0 c-34 0 -87 -7 -119 -15
-118 -31 -226 -14 -313 50 -34 25 -122 122 -157 174 -1 2 -27 -19 -57 -45
-154 -138 -343 -202 -556 -191 -161 9 -271 49 -360 133 -112 104 -154 269
-114 444 29 127 133 250 276 325 l69 37 -64 68 c-85 89 -110 152 -110 271 0
70 4 95 25 141 47 103 128 169 249 203 76 21 226 14 298 -13z m-1044 -17 c195
-37 331 -166 365 -345 46 -242 -59 -469 -262 -565 -104 -50 -187 -65 -360 -65
l-148 0 0 -295 0 -295 -90 0 -90 0 0 790 0 790 254 0 c181 0 276 -4 331 -15z"/>
<path d="M1857 3237 c-167 -52 -199 -278 -59 -414 74 -71 80 -72 176 -25 95
47 155 106 174 170 54 180 -105 326 -291 269z"/>
<path d="M1767 2563 c-165 -88 -229 -190 -229 -361 1 -59 6 -85 27 -128 110
-226 494 -231 731 -11 l69 65 -67 98 c-84 125 -163 212 -242 269 -66 47 -181
105 -206 105 -8 0 -45 -17 -83 -37z"/>
<path d="M660 2866 l0 -326 128 0 c204 0 308 32 382 116 61 70 87 177 69 286
-18 113 -70 177 -176 219 -50 19 -82 23 -230 27 l-173 4 0 -326z"/>
</g>
</svg>
